<svg width="40" height="40" viewBox="0 0 40 40" fill="none" xmlns="http://www.w3.org/2000/svg">
<g filter="url(#filter0_b_1254_32962)">
<rect width="40" height="40" rx="20" fill="white" fill-opacity="0.8"/>
<path d="M16.2896 14C16.0806 14 15.8801 14.083 15.7323 14.2309C15.5845 14.3787 15.5014 14.5791 15.5014 14.7882C15.5014 14.9972 15.5845 15.1977 15.7323 15.3455C15.8801 15.4933 16.0806 15.5764 16.2896 15.5764H23.3097L14.2509 24.6352C14.1734 24.7073 14.1113 24.7944 14.0682 24.891C14.0252 24.9877 14.002 25.0921 14.0001 25.1979C13.9983 25.3037 14.0177 25.4089 14.0574 25.507C14.097 25.6051 14.156 25.6943 14.2309 25.7691C14.3057 25.844 14.3948 25.903 14.493 25.9426C14.5911 25.9823 14.6963 26.0017 14.8021 25.9999C14.9079 25.998 15.0123 25.9748 15.109 25.9318C15.2056 25.8887 15.2927 25.8266 15.3648 25.7491L24.4236 16.6903V23.7104C24.4236 23.9194 24.5067 24.1199 24.6545 24.2677C24.8023 24.4155 25.0028 24.4986 25.2118 24.4986C25.4209 24.4986 25.6213 24.4155 25.7691 24.2677C25.917 24.1199 26 23.9194 26 23.7104V14.7882C25.9994 14.6834 25.978 14.5798 25.9369 14.4834C25.8797 14.3491 25.7868 14.2329 25.6682 14.1477C25.5496 14.0625 25.41 14.0114 25.2644 14H16.2896Z" fill="black"/>
</g>
<defs>
<filter id="filter0_b_1254_32962" x="-50" y="-50" width="140" height="140" filterUnits="userSpaceOnUse" color-interpolation-filters="sRGB">
<feFlood flood-opacity="0" result="BackgroundImageFix"/>
<feGaussianBlur in="BackgroundImageFix" stdDeviation="25"/>
<feComposite in2="SourceAlpha" operator="in" result="effect1_backgroundBlur_1254_32962"/>
<feBlend mode="normal" in="SourceGraphic" in2="effect1_backgroundBlur_1254_32962" result="shape"/>
</filter>
</defs>
</svg>
