<svg width="24" height="25" viewBox="0 0 24 25" fill="none" xmlns="http://www.w3.org/2000/svg">
<path d="M13.0001 19.2508C12.9015 19.2513 12.8039 19.2321 12.7129 19.1943C12.6219 19.1565 12.5393 19.1009 12.4701 19.0308C12.3296 18.8902 12.2507 18.6996 12.2507 18.5008C12.2507 18.3021 12.3296 18.1114 12.4701 17.9708L17.9401 12.5008L12.4701 7.03082C12.3376 6.88865 12.2655 6.7006 12.2689 6.5063C12.2723 6.312 12.351 6.12661 12.4885 5.9892C12.6259 5.85179 12.8112 5.77308 13.0056 5.76965C13.1999 5.76622 13.3879 5.83834 13.5301 5.97082L19.5301 11.9708C19.6705 12.1114 19.7494 12.3021 19.7494 12.5008C19.7494 12.6996 19.6705 12.8902 19.5301 13.0308L13.5301 19.0308C13.4608 19.1009 13.3783 19.1565 13.2873 19.1943C13.1963 19.2321 13.0986 19.2513 13.0001 19.2508Z" fill="black"/>
<path d="M19.0806 13H1.91935C1.67553 13 1.44169 12.9473 1.26927 12.8536C1.09686 12.7598 1 12.6326 1 12.5C1 12.3674 1.09686 12.2402 1.26927 12.1464C1.44169 12.0527 1.67553 12 1.91935 12H19.0806C19.3245 12 19.5583 12.0527 19.7307 12.1464C19.9031 12.2402 20 12.3674 20 12.5C20 12.6326 19.9031 12.7598 19.7307 12.8536C19.5583 12.9473 19.3245 13 19.0806 13Z" fill="black"/>
</svg>
