<svg width="30" height="30" viewBox="0 0 30 30" fill="none" xmlns="http://www.w3.org/2000/svg">
<path d="M14.0625 23.4375C14.0625 24.475 13.225 25.3125 12.1875 25.3125C11.15 25.3125 10.3125 24.475 10.3125 23.4375C10.3125 22.4 11.15 21.5625 12.1875 21.5625C13.225 21.5625 14.0625 22.4 14.0625 23.4375ZM20.3125 21.5625C19.275 21.5625 18.4375 22.4 18.4375 23.4375C18.4375 24.475 19.275 25.3125 20.3125 25.3125C21.35 25.3125 22.1875 24.475 22.1875 23.4375C22.1875 22.4 21.35 21.5625 20.3125 21.5625ZM25.9125 9.6L23.4125 19.6C23.3125 20.0125 22.9375 20.3125 22.5 20.3125H10C9.55 20.3125 9.1625 19.9875 9.075 19.5375L6.7125 6.5625H5C4.4875 6.5625 4.0625 6.1375 4.0625 5.625C4.0625 5.1125 4.4875 4.6875 5 4.6875H7.5C7.95 4.6875 8.3375 5.0125 8.425 5.4625L8.9625 8.4375H25C25.2875 8.4375 25.5625 8.575 25.7375 8.8C25.9125 9.025 25.975 9.325 25.9125 9.6ZM23.8 10.3125H9.3L10.775 18.4375H21.7625L23.8 10.3125Z" fill="black"/>
</svg>
