<svg width="40" height="40" viewBox="0 0 40 40" fill="none" xmlns="http://www.w3.org/2000/svg">
<path d="M8.33329 21.25H26.6666C26.9981 21.25 27.3161 21.1183 27.5505 20.8839C27.7849 20.6495 27.9166 20.3315 27.9166 20C27.9166 19.6685 27.7849 19.3505 27.5505 19.1161C27.3161 18.8817 26.9981 18.75 26.6666 18.75H8.33329C8.00177 18.75 7.68383 18.8817 7.44941 19.1161C7.21498 19.3505 7.08329 19.6685 7.08329 20C7.08329 20.3315 7.21498 20.6495 7.44941 20.8839C7.68383 21.1183 8.00177 21.25 8.33329 21.25Z" fill="white"/>
<path d="M8.33329 13.75H26.6666C26.9981 13.75 27.3161 13.6183 27.5505 13.3839C27.7849 13.1495 27.9166 12.8315 27.9166 12.5C27.9166 12.1685 27.7849 11.8505 27.5505 11.6161C27.3161 11.3817 26.9981 11.25 26.6666 11.25H8.33329C8.00177 11.25 7.68383 11.3817 7.44941 11.6161C7.21498 11.8505 7.08329 12.1685 7.08329 12.5C7.08329 12.8315 7.21498 13.1495 7.44941 13.3839C7.68383 13.6183 8.00177 13.75 8.33329 13.75Z" fill="white"/>
<path d="M8.33329 28.75H26.6666C26.9981 28.75 27.3161 28.6183 27.5505 28.3839C27.7849 28.1495 27.9166 27.8315 27.9166 27.5C27.9166 27.1685 27.7849 26.8505 27.5505 26.6161C27.3161 26.3817 26.9981 26.25 26.6666 26.25H8.33329C8.00177 26.25 7.68383 26.3817 7.44941 26.6161C7.21498 26.8505 7.08329 27.1685 7.08329 27.5C7.08329 27.8315 7.21498 28.1495 7.44941 28.3839C7.68383 28.6183 8.00177 28.75 8.33329 28.75Z" fill="white"/>
<path d="M31.6668 14.1668C31.8835 14.1695 32.0986 14.1298 32.3001 14.0502C32.4993 13.9535 32.6843 13.8302 32.8501 13.6835C33.0046 13.5278 33.1268 13.3431 33.2098 13.14C33.2927 12.9369 33.3347 12.7195 33.3335 12.5002C33.3273 12.0589 33.1547 11.6362 32.8501 11.3168C32.6937 11.1625 32.5062 11.0432 32.3001 10.9668C31.8944 10.8001 31.4392 10.8001 31.0335 10.9668C30.8289 11.0461 30.642 11.1651 30.4835 11.3168C30.1789 11.6362 30.0063 12.0589 30.0001 12.5002C29.9989 12.7195 30.0409 12.9369 30.1238 13.14C30.2068 13.3431 30.329 13.5278 30.4835 13.6835C30.6493 13.8302 30.8343 13.9535 31.0335 14.0502C31.235 14.1298 31.4501 14.1695 31.6668 14.1668Z" fill="white"/>
<path d="M31.6667 21.6671C31.8845 21.6645 32.0996 21.6192 32.3 21.5338C32.502 21.4494 32.688 21.331 32.85 21.1838C33.0045 21.0281 33.1267 20.8434 33.2096 20.6403C33.2926 20.4372 33.3346 20.2198 33.3333 20.0005C33.3272 19.5592 33.1546 19.1365 32.85 18.8171C32.688 18.6699 32.502 18.5515 32.3 18.4671C31.9983 18.3272 31.6617 18.2808 31.3333 18.3338L31.0333 18.4338L30.7333 18.5838C30.646 18.6453 30.5625 18.7121 30.4833 18.7838C30.1709 19.1115 29.9976 19.5476 30 20.0005C30 20.4425 30.1756 20.8664 30.4882 21.179C30.8007 21.4915 31.2247 21.6671 31.6667 21.6671Z" fill="white"/>
<path d="M31.6667 29.1662C31.8834 29.1689 32.0985 29.1293 32.3 29.0496C32.4992 28.9529 32.6842 28.8296 32.85 28.6829C32.9972 28.5209 33.1156 28.3349 33.2 28.1329C33.2882 27.9334 33.3337 27.7177 33.3337 27.4996C33.3337 27.2815 33.2882 27.0658 33.2 26.8663C33.1156 26.6643 32.9972 26.4783 32.85 26.3162C32.6156 26.085 32.318 25.9283 31.9947 25.866C31.6714 25.8037 31.3369 25.8386 31.0334 25.9662C30.8288 26.0456 30.6419 26.1645 30.4834 26.3162C30.3361 26.4783 30.2178 26.6643 30.1334 26.8663C30.0452 27.0658 29.9996 27.2815 29.9996 27.4996C29.9996 27.7177 30.0452 27.9334 30.1334 28.1329C30.2178 28.3349 30.3361 28.5209 30.4834 28.6829C30.6391 28.8374 30.8238 28.9596 31.0268 29.0425C31.2299 29.1255 31.4473 29.1675 31.6667 29.1662Z" fill="white"/>
</svg>
