<svg width="60" height="60" viewBox="0 0 60 60" fill="none" xmlns="http://www.w3.org/2000/svg">
<rect x="0.5" y="0.5" width="59" height="59" rx="7.5" stroke="#DEDEDE"/>
<path d="M27.0002 38.3341C26.8659 38.3296 26.734 38.2977 26.6125 38.2404C26.491 38.1831 26.3824 38.1015 26.2935 38.0008L19.6269 31.3341C19.4998 31.2517 19.393 31.1415 19.3148 31.0118C19.2365 30.8821 19.1887 30.7363 19.175 30.5854C19.1613 30.4346 19.1821 30.2826 19.2357 30.1409C19.2894 29.9992 19.3745 29.8716 19.4847 29.7676C19.5949 29.6637 19.7272 29.5861 19.8718 29.5408C20.0163 29.4955 20.1693 29.4836 20.3191 29.5061C20.4689 29.5285 20.6117 29.5847 20.7366 29.6704C20.8615 29.7561 20.9653 29.8691 21.0402 30.0008L27.0002 35.9208L40.9602 22.0008C41.1482 21.8789 41.3716 21.8237 41.5946 21.8439C41.8177 21.8642 42.0275 21.9587 42.1905 22.1125C42.3534 22.2662 42.46 22.4701 42.4932 22.6916C42.5264 22.9131 42.4843 23.1394 42.3735 23.3341L27.7069 38.0008C27.618 38.1015 27.5095 38.1831 27.3879 38.2404C27.2664 38.2977 27.1345 38.3296 27.0002 38.3341Z" fill="black"/>
</svg>
