<svg width="24" height="24" viewBox="0 0 24 24" fill="none" xmlns="http://www.w3.org/2000/svg">
<path d="M20.73 16.521C20.73 16.521 20.73 16.451 20.73 16.411V7.59097C20.7296 7.47621 20.7022 7.36315 20.65 7.26097C20.5763 7.10217 20.4488 6.97462 20.29 6.90097L12.29 3.32097C12.1926 3.27677 12.0869 3.25391 11.98 3.25391C11.873 3.25391 11.7674 3.27677 11.67 3.32097L3.66998 6.90097C3.54132 6.96572 3.43252 7.06401 3.35508 7.18545C3.27763 7.3069 3.23441 7.447 3.22998 7.59097V16.411C3.23746 16.5542 3.28192 16.693 3.35903 16.814C3.43614 16.9349 3.54327 17.0338 3.66998 17.101L11.67 20.681C11.7668 20.7272 11.8727 20.7511 11.98 20.7511C12.0872 20.7511 12.1932 20.7272 12.29 20.681L20.29 17.101C20.4055 17.0481 20.5061 16.9675 20.5829 16.8663C20.6596 16.7651 20.7102 16.6464 20.73 16.521ZM4.72998 8.74097L11.23 11.661V18.841L4.72998 15.931V8.74097ZM12.73 11.661L19.23 8.74097V15.931L12.73 18.841V11.661ZM12 4.82097L18.17 7.59097L12 10.351L5.82998 7.59097L12 4.82097Z" fill="#FFBF4B"/>
</svg>
