<svg width="20" height="20" viewBox="0 0 20 20" fill="none" xmlns="http://www.w3.org/2000/svg">
<path d="M14.5833 5.62435H12.9166V4.99935C12.9166 4.19935 12.2583 3.54102 11.4583 3.54102H3.74996C2.94996 3.54102 2.29163 4.19935 2.29163 4.99935V12.4993C2.29163 13.2993 2.94996 13.9577 3.74996 13.9577H3.98329C4.09163 15.3493 5.24996 16.4577 6.66663 16.4577C8.08329 16.4577 9.24163 15.3493 9.34996 13.9577H10.6416C10.75 15.3493 11.9083 16.4577 13.325 16.4577C14.7416 16.4577 15.9 15.3493 16.0083 13.9577H16.2416C17.0416 13.9577 17.7 13.2993 17.7 12.4993V8.74935C17.7 7.02435 16.3 5.62435 14.575 5.62435H14.5833ZM3.54163 12.4993V4.99935C3.54163 4.88268 3.63329 4.79102 3.74996 4.79102H11.4583C11.575 4.79102 11.6666 4.88268 11.6666 4.99935V11.616C11.6666 11.616 11.625 11.666 11.6 11.6827C11.475 11.791 11.3583 11.9077 11.25 12.0327C11.2166 12.0743 11.1833 12.1077 11.1583 12.1493C11.0333 12.3243 10.9166 12.4993 10.8416 12.6993H9.17496C9.17496 12.6993 9.17496 12.6993 9.17496 12.691C9.11663 12.5493 9.03329 12.4077 8.94996 12.2827C8.92496 12.2493 8.89996 12.216 8.87496 12.1743C8.80829 12.0743 8.73329 11.991 8.64996 11.8993C8.61663 11.866 8.59163 11.8327 8.55829 11.7993C8.44996 11.6993 8.34163 11.6077 8.22496 11.5243C8.20829 11.516 8.19996 11.4993 8.18329 11.491C8.05829 11.4077 7.92496 11.341 7.79163 11.2743C7.74163 11.2493 7.69163 11.2327 7.64163 11.216C7.53329 11.1743 7.43329 11.141 7.32496 11.116C7.27496 11.1077 7.22496 11.091 7.17496 11.0827C7.01663 11.0493 6.84996 11.0327 6.68329 11.0327C6.51663 11.0327 6.35829 11.0493 6.19163 11.0827C6.14163 11.091 6.09163 11.1077 6.04163 11.116C5.93329 11.141 5.82496 11.1743 5.72496 11.216C5.67496 11.2327 5.62496 11.2493 5.57496 11.2743C5.44163 11.3327 5.30829 11.4077 5.18329 11.491C5.16663 11.4993 5.15829 11.5077 5.14163 11.5243C5.02496 11.6077 4.90829 11.6993 4.80829 11.7993C4.77496 11.8327 4.74163 11.866 4.71663 11.8993C4.63329 11.9827 4.55829 12.0743 4.49163 12.1743C4.46663 12.2077 4.44163 12.241 4.41663 12.2827C4.33329 12.416 4.25829 12.5493 4.19163 12.691C4.19163 12.691 4.19163 12.691 4.19163 12.6993H3.77496C3.65829 12.6993 3.56663 12.6077 3.56663 12.491L3.54163 12.4993ZM6.66663 15.2077C5.86663 15.2077 5.20829 14.5493 5.20829 13.7493C5.20829 13.6493 5.21663 13.5493 5.24163 13.4577C5.27496 13.3077 5.33329 13.166 5.40829 13.041C5.41663 13.016 5.43329 12.9993 5.44163 12.9743C5.51663 12.8577 5.60829 12.7493 5.71663 12.6577C5.74163 12.641 5.75829 12.6243 5.78329 12.6077C5.89163 12.5243 6.01663 12.4493 6.14996 12.3993C6.16663 12.3993 6.19163 12.3827 6.21663 12.3827C6.35829 12.3327 6.51663 12.2993 6.67496 12.2993C6.83329 12.2993 6.98329 12.3327 7.13329 12.3827C7.15829 12.3827 7.17496 12.391 7.19996 12.3993C7.33329 12.4493 7.45829 12.5243 7.56663 12.6077C7.59163 12.6243 7.60829 12.641 7.63329 12.6577C7.74163 12.7493 7.83329 12.8577 7.90829 12.9743C7.92496 12.991 7.93329 13.016 7.94163 13.041C8.01663 13.1743 8.07496 13.3077 8.10829 13.4577C8.12496 13.5493 8.14163 13.6493 8.14163 13.7493C8.14163 14.5493 7.48329 15.2077 6.68329 15.2077H6.66663ZM13.3333 15.2077C12.5333 15.2077 11.875 14.5493 11.875 13.7493C11.875 13.6493 11.8833 13.5493 11.9083 13.4577C11.9333 13.3577 11.9583 13.2577 12 13.166C12 13.166 12 13.1577 12 13.1493C12.0416 13.066 12.0833 12.9827 12.1416 12.9077C12.15 12.891 12.1666 12.8827 12.175 12.866C12.225 12.7993 12.275 12.741 12.3333 12.6827C12.35 12.666 12.3666 12.6577 12.3833 12.641C12.4416 12.591 12.5083 12.541 12.575 12.4993C12.5916 12.491 12.6166 12.4743 12.6416 12.466C12.7166 12.4243 12.8 12.391 12.8833 12.366C12.9166 12.3577 12.95 12.341 12.9916 12.3327C13.1 12.3077 13.2166 12.291 13.3333 12.291C13.4916 12.291 13.6416 12.3243 13.7916 12.3743C13.8166 12.3743 13.8333 12.3827 13.8583 12.391C13.9916 12.441 14.1166 12.516 14.225 12.5993C14.25 12.616 14.2666 12.6327 14.2916 12.6493C14.4 12.741 14.4916 12.8493 14.5666 12.966C14.5833 12.9827 14.5916 13.0077 14.6 13.0327C14.675 13.166 14.7333 13.2993 14.7666 13.4493C14.7833 13.541 14.8 13.641 14.8 13.741C14.8 14.541 14.1416 15.1993 13.3416 15.1993L13.3333 15.2077ZM12.9166 9.37435V6.87435H14.5833C15.6166 6.87435 16.4583 7.71602 16.4583 8.74935V9.37435H12.9166Z" fill="#999999"/>
</svg>
