<svg width="21" height="21" viewBox="0 0 21 21" fill="none" xmlns="http://www.w3.org/2000/svg">
<path d="M10.5001 18.2083C10.3776 18.2095 10.2579 18.1716 10.1584 18.1C9.90842 17.9417 4.04175 14 4.04175 9.20833C4.04175 7.49548 4.72218 5.85277 5.93335 4.6416C7.14452 3.43043 8.78723 2.75 10.5001 2.75C12.2129 2.75 13.8556 3.43043 15.0668 4.6416C16.278 5.85277 16.9584 7.49548 16.9584 9.20833C16.9584 14 11.1251 17.9417 10.8417 18.1C10.7423 18.1716 10.6226 18.2095 10.5001 18.2083ZM10.5001 4.04167C9.1246 4.03724 7.80358 4.57883 6.82706 5.54753C5.85055 6.51623 5.29836 7.83286 5.29175 9.20833C5.29175 12.7167 9.28341 15.925 10.5001 16.8167C11.7167 15.925 15.7084 12.7167 15.7084 9.20833C15.7018 7.83286 15.1496 6.51623 14.1731 5.54753C13.1966 4.57883 11.8756 4.03724 10.5001 4.04167Z" fill="black"/>
<path d="M10.5002 11.1243C10.0469 11.1243 9.60385 10.9899 9.22698 10.7381C8.85012 10.4863 8.55639 10.1284 8.38294 9.70967C8.20949 9.29092 8.16411 8.83014 8.25253 8.3856C8.34096 7.94106 8.55922 7.53273 8.87971 7.21223C9.20021 6.89173 9.60854 6.67347 10.0531 6.58505C10.4976 6.49663 10.9584 6.54201 11.3771 6.71546C11.7959 6.88891 12.1538 7.18264 12.4056 7.5595C12.6574 7.93636 12.7918 8.37943 12.7918 8.83268C12.7918 9.44047 12.5504 10.0234 12.1206 10.4531C11.6908 10.8829 11.108 11.1243 10.5002 11.1243ZM10.5002 7.79102C10.2941 7.79102 10.0927 7.85211 9.92144 7.96657C9.75014 8.08103 9.61663 8.24371 9.53779 8.43405C9.45895 8.62439 9.43832 8.83384 9.47851 9.0359C9.51871 9.23797 9.61791 9.42357 9.76359 9.56925C9.90927 9.71493 10.0949 9.81414 10.2969 9.85433C10.499 9.89453 10.7085 9.8739 10.8988 9.79506C11.0891 9.71622 11.2518 9.5827 11.3663 9.4114C11.4807 9.2401 11.5418 9.03871 11.5418 8.83268C11.5418 8.55642 11.4321 8.29146 11.2367 8.09611C11.0414 7.90076 10.7764 7.79102 10.5002 7.79102Z" fill="black"/>
</svg>
