<svg width="182" height="81" viewBox="0 0 182 81" fill="none" xmlns="http://www.w3.org/2000/svg">
<path d="M22.8305 25.0835C22.7342 23.879 22.2825 22.9396 21.4755 22.2651C20.6806 21.5906 19.4701 21.2533 17.8441 21.2533C16.8083 21.2533 15.9591 21.3798 15.2967 21.6327C14.6463 21.8736 14.1645 22.2048 13.8513 22.6264C13.5382 23.048 13.3756 23.5297 13.3635 24.0717C13.3394 24.5174 13.4177 24.9209 13.5984 25.2822C13.7911 25.6315 14.0922 25.9507 14.5017 26.2398C14.9113 26.5168 15.4352 26.7697 16.0735 26.9986C16.7119 27.2274 17.4707 27.4322 18.35 27.6128L21.3852 28.2632C23.4327 28.6968 25.1852 29.2689 26.6426 29.9796C28.1 30.6902 29.2924 31.5273 30.2198 32.4909C31.1473 33.4424 31.8278 34.5143 32.2614 35.7067C32.707 36.8991 32.9359 38.2 32.9479 39.6092C32.9359 42.0422 32.3276 44.1018 31.1232 45.788C29.9187 47.4742 28.1963 48.757 25.9561 49.6362C23.7278 50.5155 21.0479 50.9551 17.9164 50.9551C14.7005 50.9551 11.8941 50.4793 9.49725 49.5278C7.11244 48.5763 5.25758 47.1129 3.93269 45.1376C2.61983 43.1502 1.95739 40.6089 1.94534 37.5134H11.4846C11.5448 38.6456 11.8279 39.5971 12.3337 40.368C12.8396 41.1388 13.5502 41.723 14.4656 42.1204C15.393 42.5179 16.4951 42.7166 17.7718 42.7166C18.8438 42.7166 19.7411 42.5842 20.4638 42.3192C21.1864 42.0542 21.7345 41.6868 22.1078 41.2171C22.4812 40.7474 22.6739 40.2114 22.686 39.6092C22.6739 39.0431 22.4873 38.5492 22.1259 38.1277C21.7766 37.6941 21.1985 37.3087 20.3915 36.9714C19.5845 36.6221 18.4945 36.2969 17.1214 35.9958L13.4358 35.2009C10.1597 34.4902 7.57615 33.3039 5.68516 31.6417C3.80622 29.9675 2.87277 27.6851 2.88481 24.7944C2.87277 22.4457 3.49908 20.3921 4.76376 18.6336C6.04047 16.8631 7.80499 15.484 10.0573 14.4964C12.3217 13.5087 14.9173 13.0149 17.8441 13.0149C20.8311 13.0149 23.4147 13.5147 25.5947 14.5144C27.7748 15.5141 29.455 16.9233 30.6354 18.742C31.8278 20.5487 32.43 22.6625 32.442 25.0835H22.8305ZM35.7573 21.6147V13.5208H67.9161V21.6147H56.787V50.5215H46.8864V21.6147H35.7573ZM139.975 27.396H129.786C129.713 26.5529 129.521 25.7881 129.208 25.1015C128.907 24.415 128.485 23.8248 127.943 23.331C127.413 22.8251 126.769 22.4397 126.01 22.1747C125.251 21.8977 124.39 21.7592 123.426 21.7592C121.74 21.7592 120.313 22.1687 119.144 22.9877C117.988 23.8068 117.109 24.9811 116.507 26.5108C115.917 28.0404 115.621 29.8772 115.621 32.0211C115.621 34.2855 115.923 36.1825 116.525 37.7122C117.139 39.2298 118.024 40.374 119.181 41.1448C120.337 41.9036 121.728 42.283 123.354 42.283C124.281 42.283 125.112 42.1686 125.847 41.9398C126.582 41.6989 127.22 41.3556 127.762 40.91C128.304 40.4643 128.744 39.9283 129.081 39.302C129.43 38.6637 129.665 37.947 129.786 37.1521L139.975 37.2243C139.855 38.7901 139.415 40.386 138.657 42.012C137.898 43.626 136.82 45.1195 135.423 46.4926C134.037 47.8536 132.321 48.9497 130.274 49.7807C128.226 50.6118 125.847 51.0274 123.137 51.0274C119.741 51.0274 116.693 50.2987 113.995 48.8413C111.309 47.3839 109.184 45.24 107.618 42.4095C106.064 39.579 105.287 36.1163 105.287 32.0211C105.287 27.9019 106.082 24.4331 107.672 21.6147C109.262 18.7842 111.406 16.6463 114.104 15.201C116.802 13.7436 119.813 13.0149 123.137 13.0149C125.474 13.0149 127.624 13.3341 129.587 13.9724C131.55 14.6108 133.273 15.5442 134.754 16.7728C136.236 17.9893 137.428 19.4888 138.331 21.2714C139.235 23.054 139.783 25.0955 139.975 27.396ZM168.562 25.7339C168.405 25.0955 168.158 24.5355 167.821 24.0537C167.484 23.5599 167.062 23.1443 166.556 22.8071C166.062 22.4578 165.484 22.1988 164.822 22.0302C164.171 21.8495 163.455 21.7592 162.672 21.7592C160.986 21.7592 159.546 22.1627 158.354 22.9697C157.173 23.7767 156.27 24.9389 155.644 26.4566C155.03 27.9742 154.722 29.8049 154.722 31.9489C154.722 34.1169 155.017 35.9717 155.608 37.5134C156.198 39.0551 157.077 40.2355 158.245 41.0545C159.414 41.8735 160.865 42.283 162.6 42.283C164.129 42.283 165.4 42.0602 166.412 41.6146C167.435 41.1689 168.2 40.5366 168.706 39.7176C169.212 38.8985 169.465 37.935 169.465 36.8269L171.199 37.0075H162.744V29.8531H179.149V34.9841C179.149 38.3565 178.432 41.2412 176.999 43.638C175.577 46.0229 173.614 47.8536 171.109 49.1303C168.616 50.395 165.755 51.0274 162.527 51.0274C158.926 51.0274 155.764 50.2625 153.042 48.7329C150.32 47.2032 148.194 45.0232 146.665 42.1927C145.147 39.3622 144.388 35.9958 144.388 32.0934C144.388 29.0341 144.852 26.3241 145.779 23.9633C146.719 21.6026 148.02 19.6093 149.682 17.9832C151.344 16.3452 153.265 15.1106 155.445 14.2796C157.625 13.4364 159.962 13.0149 162.455 13.0149C164.647 13.0149 166.683 13.328 168.562 13.9544C170.453 14.5686 172.121 15.4479 173.566 16.5921C175.023 17.7243 176.198 19.0673 177.089 20.621C177.98 22.1747 178.522 23.879 178.715 25.7339H168.562Z" fill="#999999"/>
<path d="M82.0263 51.0996C79.3765 51.0996 77.094 50.6299 75.179 49.6904C73.2639 48.7509 71.7945 47.4923 70.7707 45.9145C69.7469 44.3366 69.235 42.5962 69.235 40.6932C69.235 39.308 69.5 38.0855 70.0299 37.0256C70.5599 35.9537 71.3006 34.972 72.2522 34.0807C73.2037 33.1894 74.3178 32.3102 75.5945 31.443L83.9775 26.2398C84.8206 25.7098 85.3927 25.1618 85.6938 24.5957C85.9949 24.0175 86.1455 23.5057 86.1455 23.06C86.1455 22.4698 85.9287 21.9459 85.4951 21.4882C85.0615 21.0305 84.387 20.8077 83.4716 20.8197C82.9055 20.8197 82.4177 20.9281 82.0082 21.1449C81.5987 21.3497 81.2795 21.6388 81.0507 22.0121C80.8339 22.3855 80.7255 22.8312 80.7255 23.3491C80.7255 24.0597 80.9302 24.7884 81.3397 25.5352C81.7492 26.2699 82.3093 27.0648 83.0199 27.92C83.7306 28.7751 84.5315 29.7327 85.4228 30.7926L103.345 50.5215H93.3722L78.3407 34.6227C77.6059 33.8398 76.7929 32.8823 75.9016 31.7501C75.0103 30.6059 74.2395 29.3171 73.5891 27.8838C72.9507 26.4505 72.6316 24.8908 72.6316 23.2045C72.6316 21.3256 73.0832 19.6093 73.9866 18.0555C74.8899 16.5018 76.1546 15.2612 77.7806 14.3338C79.4066 13.4063 81.3036 12.9426 83.4716 12.9426C85.5433 12.9426 87.3259 13.3702 88.8194 14.2254C90.3249 15.0805 91.4812 16.2187 92.2882 17.64C93.1072 19.0612 93.5167 20.627 93.5167 22.3373C93.5167 24.0597 93.0892 25.6676 92.234 27.1612C91.3909 28.6547 90.1804 29.9615 88.6026 31.0816L80.9423 36.5017C80.3521 36.9112 79.8402 37.3809 79.4066 37.9109C78.985 38.4408 78.7743 39.1274 78.7743 39.9705C78.7743 40.6691 78.9369 41.2653 79.2621 41.7591C79.5873 42.2529 80.0449 42.6323 80.6351 42.8973C81.2374 43.1623 81.942 43.2948 82.7489 43.2948C83.9775 43.2948 85.206 42.9997 86.4346 42.4095C87.6751 41.8073 88.8073 40.9702 89.8311 39.8982C90.8549 38.8142 91.6739 37.5375 92.2882 36.0681C92.9145 34.5866 93.2277 32.9726 93.2277 31.2262H101.105C101.105 33.3701 100.882 35.4357 100.436 37.4231C99.9907 39.4104 99.274 41.2291 98.2864 42.8792C97.2987 44.5293 95.9979 45.9205 94.3839 47.0527C93.8781 47.3056 93.3842 47.5465 92.9025 47.7753C92.4207 48.0042 91.9269 48.2451 91.421 48.498C89.9395 49.4495 88.3918 50.124 86.7778 50.5215C85.1639 50.9069 83.58 51.0996 82.0263 51.0996Z" fill="#F69912"/>
<path d="M5.73981 71.5496C5.70729 71.2217 5.56773 70.9669 5.32112 70.7854C5.0745 70.6038 4.73982 70.513 4.31706 70.513C4.02979 70.513 3.78725 70.5537 3.58942 70.635C3.39159 70.7136 3.23982 70.8233 3.13413 70.9642C3.03115 71.1052 2.97966 71.2651 2.97966 71.4439C2.97424 71.593 3.00541 71.723 3.07316 71.8342C3.14362 71.9453 3.23982 72.0415 3.36178 72.1228C3.48373 72.2014 3.62465 72.2705 3.78454 72.3301C3.94443 72.387 4.11516 72.4358 4.29673 72.4764L5.04469 72.6553C5.40784 72.7366 5.74117 72.845 6.04469 72.9805C6.34821 73.116 6.61108 73.2827 6.8333 73.4805C7.05552 73.6783 7.22761 73.9114 7.34956 74.1797C7.47422 74.448 7.53791 74.7555 7.54062 75.1024C7.53791 75.6119 7.40783 76.0536 7.15038 76.4276C6.89563 76.7989 6.52707 77.0875 6.04469 77.2935C5.56502 77.4967 4.98643 77.5984 4.30893 77.5984C3.63684 77.5984 3.05148 77.4954 2.55284 77.2894C2.0569 77.0835 1.66937 76.7786 1.39024 76.3748C1.11382 75.9683 0.968832 75.4656 0.955282 74.8667H2.65853C2.6775 75.1458 2.75744 75.3789 2.89836 75.5658C3.04199 75.7501 3.23305 75.8897 3.47153 75.9845C3.71272 76.0767 3.98508 76.1228 4.2886 76.1228C4.5867 76.1228 4.84551 76.0794 5.06502 75.9927C5.28724 75.906 5.45933 75.7854 5.58128 75.6309C5.70323 75.4764 5.7642 75.2989 5.7642 75.0984C5.7642 74.9114 5.70865 74.7542 5.59754 74.6268C5.48914 74.4995 5.32925 74.3911 5.11786 74.3016C4.90919 74.2122 4.6531 74.1309 4.34958 74.0577L3.44308 73.8301C2.74118 73.6593 2.18698 73.3924 1.78048 73.0293C1.37398 72.6661 1.17208 72.177 1.17479 71.5618C1.17208 71.0577 1.30623 70.6174 1.57723 70.2407C1.85094 69.864 2.22628 69.5699 2.70324 69.3586C3.1802 69.1472 3.72221 69.0415 4.32925 69.0415C4.94713 69.0415 5.48643 69.1472 5.94713 69.3586C6.41054 69.5699 6.77097 69.864 7.02842 70.2407C7.28588 70.6174 7.41867 71.0537 7.4268 71.5496H5.73981ZM8.69203 77.4805V71.2366H10.3424V72.3382H10.4156C10.5457 71.9724 10.7625 71.6837 11.066 71.4724C11.3695 71.261 11.7327 71.1553 12.1554 71.1553C12.5836 71.1553 12.9481 71.2623 13.2489 71.4764C13.5497 71.6878 13.7503 71.9751 13.8505 72.3382H13.9156C14.043 71.9805 14.2733 71.6946 14.6066 71.4805C14.9427 71.2637 15.3397 71.1553 15.7977 71.1553C16.3803 71.1553 16.8532 71.3409 17.2164 71.7122C17.5822 72.0808 17.7652 72.6038 17.7652 73.2813V77.4805H16.0375V73.6228C16.0375 73.2759 15.9454 73.0157 15.7611 72.8423C15.5768 72.6688 15.3465 72.5821 15.0701 72.5821C14.7557 72.5821 14.5104 72.6824 14.3343 72.8829C14.1581 73.0808 14.0701 73.3423 14.0701 73.6675V77.4805H12.3912V73.5862C12.3912 73.2799 12.3031 73.036 12.127 72.8545C11.9535 72.6729 11.7245 72.5821 11.44 72.5821C11.2476 72.5821 11.0741 72.6309 10.9197 72.7285C10.7679 72.8233 10.6473 72.9575 10.5579 73.1309C10.4684 73.3016 10.4237 73.5022 10.4237 73.7325V77.4805H8.69203ZM20.9135 77.5984C20.5151 77.5984 20.1601 77.5292 19.8485 77.391C19.5368 77.2501 19.2902 77.0428 19.1087 76.7691C18.9298 76.4927 18.8404 76.1485 18.8404 75.7366C18.8404 75.3897 18.904 75.0984 19.0314 74.8626C19.1588 74.6268 19.3322 74.4371 19.5517 74.2935C19.7713 74.1499 20.0206 74.0415 20.2997 73.9683C20.5815 73.8951 20.8769 73.8436 21.1859 73.8138C21.549 73.7759 21.8417 73.7406 22.0639 73.7081C22.2861 73.6729 22.4474 73.6214 22.5477 73.5537C22.6479 73.4859 22.6981 73.3856 22.6981 73.2528V73.2285C22.6981 72.971 22.6168 72.7718 22.4542 72.6309C22.2943 72.49 22.0666 72.4195 21.7712 72.4195C21.4596 72.4195 21.2116 72.4886 21.0273 72.6268C20.8431 72.7623 20.7211 72.9331 20.6615 73.139L19.0599 73.0089C19.1412 72.6295 19.3011 72.3016 19.5395 72.0252C19.778 71.7461 20.0856 71.532 20.4623 71.3829C20.8417 71.2312 21.2807 71.1553 21.7794 71.1553C22.1263 71.1553 22.4582 71.1959 22.7753 71.2772C23.0951 71.3585 23.3783 71.4846 23.6249 71.6553C23.8742 71.826 24.0707 72.0455 24.2143 72.3138C24.3579 72.5794 24.4298 72.8978 24.4298 73.2691V77.4805H22.7875V76.6146H22.7387C22.6384 76.8097 22.5043 76.9818 22.3363 77.1309C22.1683 77.2772 21.9664 77.3924 21.7306 77.4764C21.4948 77.5577 21.2225 77.5984 20.9135 77.5984ZM21.4095 76.4032C21.6642 76.4032 21.8891 76.3531 22.0842 76.2528C22.2794 76.1499 22.4325 76.0116 22.5436 75.8382C22.6547 75.6648 22.7103 75.4683 22.7103 75.2488V74.5862C22.6561 74.6214 22.5815 74.6539 22.4867 74.6837C22.3945 74.7108 22.2902 74.7366 22.1737 74.761C22.0571 74.7826 21.9406 74.803 21.8241 74.8219C21.7076 74.8382 21.6019 74.8531 21.507 74.8667C21.3038 74.8965 21.1263 74.9439 20.9745 75.0089C20.8227 75.074 20.7049 75.1621 20.6208 75.2732C20.5368 75.3816 20.4948 75.5171 20.4948 75.6797C20.4948 75.9154 20.5802 76.0957 20.7509 76.2203C20.9244 76.3423 21.1439 76.4032 21.4095 76.4032ZM25.7733 77.4805V71.2366H27.4521V72.326H27.5171C27.631 71.9385 27.822 71.6458 28.0903 71.448C28.3586 71.2474 28.6676 71.1472 29.0171 71.1472C29.1039 71.1472 29.1974 71.1526 29.2976 71.1634C29.3979 71.1743 29.486 71.1892 29.5619 71.2081V72.7447C29.4806 72.7203 29.3681 72.6986 29.2245 72.6797C29.0808 72.6607 28.9494 72.6512 28.8302 72.6512C28.5754 72.6512 28.3478 72.7068 28.1472 72.8179C27.9494 72.9263 27.7922 73.0781 27.6757 73.2732C27.5619 73.4683 27.505 73.6932 27.505 73.948V77.4805H25.7733ZM34.0913 71.2366V72.5374H30.3312V71.2366H34.0913ZM31.1848 69.7407H32.9165V75.5618C32.9165 75.7217 32.9409 75.8463 32.9897 75.9358C33.0385 76.0225 33.1062 76.0835 33.1929 76.1187C33.2824 76.1539 33.3853 76.1715 33.5019 76.1715C33.5832 76.1715 33.6645 76.1648 33.7458 76.1512C33.8271 76.1349 33.8894 76.1228 33.9328 76.1146L34.2051 77.4032C34.1184 77.4303 33.9965 77.4615 33.8393 77.4967C33.6821 77.5347 33.491 77.5577 33.2661 77.5658C32.8488 77.5821 32.4829 77.5265 32.1685 77.3992C31.8569 77.2718 31.6144 77.074 31.4409 76.8057C31.2675 76.5374 31.1821 76.1986 31.1848 75.7894V69.7407ZM37.5842 70.6065V69.1553H44.4215V70.6065H41.8728V77.4805H40.1329V70.6065H37.5842ZM44.8667 77.4805V71.2366H46.5455V72.326H46.6106C46.7244 71.9385 46.9154 71.6458 47.1837 71.448C47.452 71.2474 47.761 71.1472 48.1105 71.1472C48.1973 71.1472 48.2908 71.1526 48.391 71.1634C48.4913 71.1743 48.5794 71.1892 48.6553 71.2081V72.7447C48.574 72.7203 48.4615 72.6986 48.3179 72.6797C48.1742 72.6607 48.0428 72.6512 47.9236 72.6512C47.6688 72.6512 47.4412 72.7068 47.2406 72.8179C47.0428 72.9263 46.8856 73.0781 46.7691 73.2732C46.6553 73.4683 46.5984 73.6932 46.5984 73.948V77.4805H44.8667ZM51.1522 77.5984C50.7538 77.5984 50.3988 77.5292 50.0872 77.391C49.7755 77.2501 49.5289 77.0428 49.3473 76.7691C49.1685 76.4927 49.079 76.1485 49.079 75.7366C49.079 75.3897 49.1427 75.0984 49.2701 74.8626C49.3975 74.6268 49.5709 74.4371 49.7904 74.2935C50.0099 74.1499 50.2593 74.0415 50.5384 73.9683C50.8202 73.8951 51.1156 73.8436 51.4246 73.8138C51.7877 73.7759 52.0804 73.7406 52.3026 73.7081C52.5248 73.6729 52.6861 73.6214 52.7863 73.5537C52.8866 73.4859 52.9367 73.3856 52.9367 73.2528V73.2285C52.9367 72.971 52.8554 72.7718 52.6928 72.6309C52.533 72.49 52.3053 72.4195 52.0099 72.4195C51.6983 72.4195 51.4503 72.4886 51.266 72.6268C51.0817 72.7623 50.9598 72.9331 50.9002 73.139L49.2986 73.0089C49.3799 72.6295 49.5397 72.3016 49.7782 72.0252C50.0167 71.7461 50.3243 71.532 50.701 71.3829C51.0804 71.2312 51.5194 71.1553 52.0181 71.1553C52.3649 71.1553 52.6969 71.1959 53.014 71.2772C53.3338 71.3585 53.617 71.4846 53.8636 71.6553C54.1129 71.826 54.3094 72.0455 54.453 72.3138C54.5966 72.5794 54.6684 72.8978 54.6684 73.2691V77.4805H53.0262V76.6146H52.9774C52.8771 76.8097 52.743 76.9818 52.575 77.1309C52.4069 77.2772 52.205 77.3924 51.9693 77.4764C51.7335 77.5577 51.4611 77.5984 51.1522 77.5984ZM51.6481 76.4032C51.9029 76.4032 52.1278 76.3531 52.3229 76.2528C52.518 76.1499 52.6712 76.0116 52.7823 75.8382C52.8934 75.6648 52.9489 75.4683 52.9489 75.2488V74.5862C52.8947 74.6214 52.8202 74.6539 52.7254 74.6837C52.6332 74.7108 52.5289 74.7366 52.4124 74.761C52.2958 74.7826 52.1793 74.803 52.0628 74.8219C51.9462 74.8382 51.8405 74.8531 51.7457 74.8667C51.5424 74.8965 51.3649 74.9439 51.2132 75.0089C51.0614 75.074 50.9435 75.1621 50.8595 75.2732C50.7755 75.3816 50.7335 75.5171 50.7335 75.6797C50.7335 75.9154 50.8189 76.0957 50.9896 76.2203C51.163 76.3423 51.3826 76.4032 51.6481 76.4032ZM58.3127 77.5821C57.8385 77.5821 57.4089 77.4601 57.0241 77.2162C56.642 76.9696 56.3385 76.6078 56.1136 76.1309C55.8913 75.6512 55.7802 75.0631 55.7802 74.3667C55.7802 73.6512 55.8954 73.0564 56.1258 72.5821C56.3561 72.1052 56.6623 71.7488 57.0445 71.513C57.4293 71.2745 57.8507 71.1553 58.3087 71.1553C58.6583 71.1553 58.9496 71.2149 59.1827 71.3342C59.4184 71.4507 59.6081 71.597 59.7518 71.7732C59.8981 71.9466 60.0092 72.1174 60.0851 72.2854H60.1379V69.1553H61.8656V77.4805H60.1583V76.4805H60.0851C60.0038 76.6539 59.8886 76.826 59.7396 76.9967C59.5932 77.1648 59.4022 77.3043 59.1664 77.4154C58.9333 77.5265 58.6488 77.5821 58.3127 77.5821ZM58.8615 76.2041C59.1406 76.2041 59.3764 76.1282 59.5688 75.9764C59.7639 75.8219 59.913 75.6065 60.016 75.3301C60.1217 75.0537 60.1745 74.7298 60.1745 74.3585C60.1745 73.9873 60.123 73.6648 60.02 73.3911C59.9171 73.1173 59.768 72.906 59.5729 72.7569C59.3778 72.6079 59.1406 72.5333 58.8615 72.5333C58.577 72.5333 58.3371 72.6106 58.142 72.765C57.9469 72.9195 57.7992 73.1336 57.6989 73.4073C57.5986 73.681 57.5485 73.9981 57.5485 74.3585C57.5485 74.7217 57.5986 75.0428 57.6989 75.3219C57.8019 75.5984 57.9496 75.8152 58.142 75.9723C58.3371 76.1268 58.577 76.2041 58.8615 76.2041ZM66.1349 77.6024C65.4926 77.6024 64.9397 77.4723 64.4763 77.2122C64.0156 76.9493 63.6606 76.578 63.4113 76.0984C63.162 75.616 63.0373 75.0455 63.0373 74.387C63.0373 73.7447 63.162 73.181 63.4113 72.6959C63.6606 72.2108 64.0116 71.8328 64.4641 71.5618C64.9194 71.2908 65.4533 71.1553 66.0657 71.1553C66.4777 71.1553 66.8611 71.2217 67.2162 71.3545C67.5739 71.4846 67.8855 71.681 68.1511 71.9439C68.4194 72.2068 68.6281 72.5374 68.7771 72.9358C68.9262 73.3314 69.0007 73.7948 69.0007 74.326V74.8016H63.7284V73.7285H67.3706C67.3706 73.4791 67.3164 73.2583 67.208 73.0659C67.0996 72.8734 66.9492 72.723 66.7568 72.6146C66.5671 72.5035 66.3462 72.448 66.0942 72.448C65.8313 72.448 65.5983 72.5089 65.395 72.6309C65.1945 72.7501 65.0373 72.9114 64.9235 73.1146C64.8097 73.3152 64.7514 73.5388 64.7487 73.7854V74.8057C64.7487 75.1146 64.8056 75.3816 64.9194 75.6065C65.0359 75.8314 65.1999 76.0049 65.4113 76.1268C65.6227 76.2488 65.8733 76.3097 66.1633 76.3097C66.3557 76.3097 66.5319 76.2826 66.6918 76.2284C66.8517 76.1742 66.9885 76.0929 67.1023 75.9845C67.2162 75.8761 67.3029 75.7433 67.3625 75.5862L68.9641 75.6919C68.8828 76.0767 68.7161 76.4127 68.4641 76.7C68.2148 76.9845 67.8923 77.2068 67.4966 77.3666C67.1037 77.5238 66.6498 77.6024 66.1349 77.6024ZM90.5209 72.0699H88.7404C88.7079 71.8396 88.6415 71.635 88.5413 71.4561C88.441 71.2745 88.3123 71.1201 88.1551 70.9927C87.9979 70.8653 87.8163 70.7678 87.6104 70.7C87.4071 70.6323 87.1862 70.5984 86.9478 70.5984C86.5169 70.5984 86.1415 70.7054 85.8218 70.9195C85.502 71.1309 85.254 71.4398 85.0779 71.8463C84.9017 72.2501 84.8136 72.7407 84.8136 73.3179C84.8136 73.9114 84.9017 74.41 85.0779 74.8138C85.2567 75.2176 85.506 75.5225 85.8258 75.7284C86.1456 75.9344 86.5155 76.0374 86.9356 76.0374C87.1713 76.0374 87.3895 76.0062 87.59 75.9439C87.7933 75.8816 87.9735 75.7908 88.1307 75.6715C88.2879 75.5496 88.4179 75.4019 88.5209 75.2284C88.6266 75.055 88.6998 74.8572 88.7404 74.635L90.5209 74.6431C90.4748 75.0252 90.3597 75.3938 90.1754 75.7488C89.9938 76.1011 89.7486 76.4168 89.4396 76.6959C89.1334 76.9723 88.7675 77.1919 88.3421 77.3545C87.9193 77.5143 87.441 77.5943 86.9071 77.5943C86.1646 77.5943 85.5006 77.4263 84.9153 77.0902C84.3326 76.7542 83.8719 76.2677 83.5331 75.6309C83.1971 74.994 83.0291 74.223 83.0291 73.3179C83.0291 72.41 83.1998 71.6377 83.5413 71.0008C83.8827 70.364 84.3462 69.8789 84.9315 69.5455C85.5169 69.2095 86.1754 69.0415 86.9071 69.0415C87.3895 69.0415 87.8366 69.1092 88.2486 69.2447C88.6632 69.3802 89.0304 69.5781 89.3502 69.8382C89.67 70.0957 89.9301 70.4114 90.1307 70.7854C90.3339 71.1594 90.464 71.5875 90.5209 72.0699ZM94.5717 77.6024C93.9403 77.6024 93.3942 77.4683 92.9335 77.2C92.4755 76.929 92.1219 76.5523 91.8725 76.0699C91.6232 75.5848 91.4986 75.0225 91.4986 74.3829C91.4986 73.7379 91.6232 73.1743 91.8725 72.6919C92.1219 72.2068 92.4755 71.8301 92.9335 71.5618C93.3942 71.2908 93.9403 71.1553 94.5717 71.1553C95.2031 71.1553 95.7479 71.2908 96.2058 71.5618C96.6666 71.8301 97.0216 72.2068 97.2709 72.6919C97.5202 73.1743 97.6449 73.7379 97.6449 74.3829C97.6449 75.0225 97.5202 75.5848 97.2709 76.0699C97.0216 76.5523 96.6666 76.929 96.2058 77.2C95.7479 77.4683 95.2031 77.6024 94.5717 77.6024ZM94.5798 76.261C94.8671 76.261 95.1069 76.1797 95.2993 76.0171C95.4918 75.8518 95.6367 75.6268 95.7343 75.3423C95.8346 75.0577 95.8847 74.7339 95.8847 74.3707C95.8847 74.0076 95.8346 73.6837 95.7343 73.3992C95.6367 73.1146 95.4918 72.8897 95.2993 72.7244C95.1069 72.5591 94.8671 72.4764 94.5798 72.4764C94.2899 72.4764 94.046 72.5591 93.8481 72.7244C93.653 72.8897 93.5053 73.1146 93.405 73.3992C93.3075 73.6837 93.2587 74.0076 93.2587 74.3707C93.2587 74.7339 93.3075 75.0577 93.405 75.3423C93.5053 75.6268 93.653 75.8518 93.8481 76.0171C94.046 76.1797 94.2899 76.261 94.5798 76.261ZM100.503 73.8707V77.4805H98.7709V71.2366H100.421V72.3382H100.494C100.633 71.9751 100.864 71.6878 101.19 71.4764C101.515 71.2623 101.909 71.1553 102.372 71.1553C102.806 71.1553 103.184 71.2501 103.507 71.4398C103.829 71.6295 104.08 71.9005 104.259 72.2529C104.438 72.6024 104.527 73.0198 104.527 73.5049V77.4805H102.795V73.8138C102.798 73.4317 102.7 73.1336 102.503 72.9195C102.305 72.7027 102.032 72.5943 101.686 72.5943C101.452 72.5943 101.246 72.6444 101.068 72.7447C100.891 72.845 100.753 72.9913 100.653 73.1837C100.555 73.3734 100.505 73.6024 100.503 73.8707ZM111.087 73.0171L109.502 73.1146C109.474 72.9791 109.416 72.8572 109.327 72.7488C109.237 72.6377 109.119 72.5496 108.973 72.4846C108.829 72.4168 108.657 72.3829 108.457 72.3829C108.189 72.3829 107.962 72.4398 107.778 72.5537C107.594 72.6648 107.502 72.8138 107.502 73.0008C107.502 73.1499 107.561 73.2759 107.68 73.3789C107.8 73.4818 108.004 73.5645 108.294 73.6268L109.424 73.8545C110.031 73.9791 110.484 74.1797 110.782 74.4561C111.08 74.7325 111.229 75.0957 111.229 75.5455C111.229 75.9547 111.109 76.3138 110.867 76.6227C110.629 76.9317 110.301 77.1729 109.884 77.3463C109.469 77.5171 108.991 77.6024 108.449 77.6024C107.622 77.6024 106.964 77.4303 106.473 77.0862C105.985 76.7393 105.699 76.2677 105.615 75.6715L107.319 75.5821C107.37 75.8341 107.495 76.0265 107.693 76.1593C107.89 76.2894 108.144 76.3545 108.453 76.3545C108.756 76.3545 109 76.2962 109.184 76.1797C109.371 76.0604 109.466 75.9073 109.469 75.7203C109.466 75.5631 109.4 75.4344 109.27 75.3341C109.14 75.2312 108.939 75.1526 108.668 75.0984L107.587 74.8829C106.977 74.761 106.523 74.5496 106.225 74.2488C105.93 73.948 105.782 73.5645 105.782 73.0984C105.782 72.6973 105.89 72.3518 106.107 72.0618C106.327 71.7718 106.634 71.5482 107.03 71.3911C107.428 71.2339 107.894 71.1553 108.428 71.1553C109.217 71.1553 109.838 71.322 110.29 71.6553C110.745 71.9886 111.011 72.4426 111.087 73.0171ZM116.324 74.8219V71.2366H118.055V77.4805H116.393V76.3463H116.328C116.187 76.7122 115.952 77.0062 115.624 77.2284C115.299 77.4507 114.902 77.5618 114.433 77.5618C114.016 77.5618 113.649 77.4669 113.332 77.2772C113.015 77.0875 112.767 76.8179 112.588 76.4683C112.412 76.1187 112.322 75.7 112.32 75.2122V71.2366H114.051V74.9032C114.054 75.2718 114.153 75.5631 114.348 75.7772C114.543 75.9913 114.805 76.0984 115.133 76.0984C115.341 76.0984 115.536 76.0509 115.718 75.9561C115.9 75.8585 116.046 75.7149 116.157 75.5252C116.271 75.3355 116.326 75.1011 116.324 74.8219ZM119.44 77.4805V71.2366H121.091V72.3382H121.164C121.294 71.9724 121.511 71.6837 121.814 71.4724C122.118 71.261 122.481 71.1553 122.904 71.1553C123.332 71.1553 123.697 71.2623 123.997 71.4764C124.298 71.6878 124.499 71.9751 124.599 72.3382H124.664C124.791 71.9805 125.022 71.6946 125.355 71.4805C125.691 71.2637 126.088 71.1553 126.546 71.1553C127.129 71.1553 127.602 71.3409 127.965 71.7122C128.331 72.0808 128.514 72.6038 128.514 73.2813V77.4805H126.786V73.6228C126.786 73.2759 126.694 73.0157 126.51 72.8423C126.325 72.6688 126.095 72.5821 125.819 72.5821C125.504 72.5821 125.259 72.6824 125.083 72.8829C124.907 73.0808 124.819 73.3423 124.819 73.6675V77.4805H123.14V73.5862C123.14 73.2799 123.052 73.036 122.875 72.8545C122.702 72.6729 122.473 72.5821 122.188 72.5821C121.996 72.5821 121.823 72.6309 121.668 72.7285C121.516 72.8233 121.396 72.9575 121.306 73.1309C121.217 73.3016 121.172 73.5022 121.172 73.7325V77.4805H119.44ZM132.727 77.6024C132.085 77.6024 131.532 77.4723 131.068 77.2122C130.608 76.9493 130.253 76.578 130.003 76.0984C129.754 75.616 129.629 75.0455 129.629 74.387C129.629 73.7447 129.754 73.181 130.003 72.6959C130.253 72.2108 130.604 71.8328 131.056 71.5618C131.512 71.2908 132.045 71.1553 132.658 71.1553C133.07 71.1553 133.453 71.2217 133.808 71.3545C134.166 71.4846 134.478 71.681 134.743 71.9439C135.012 72.2068 135.22 72.5374 135.369 72.9358C135.518 73.3314 135.593 73.7948 135.593 74.326V74.8016H130.321V73.7285H133.963C133.963 73.4791 133.909 73.2583 133.8 73.0659C133.692 72.8734 133.541 72.723 133.349 72.6146C133.159 72.5035 132.938 72.448 132.686 72.448C132.423 72.448 132.19 72.5089 131.987 72.6309C131.787 72.7501 131.629 72.9114 131.516 73.1146C131.402 73.3152 131.344 73.5388 131.341 73.7854V74.8057C131.341 75.1146 131.398 75.3816 131.512 75.6065C131.628 75.8314 131.792 76.0049 132.003 76.1268C132.215 76.2488 132.465 76.3097 132.755 76.3097C132.948 76.3097 133.124 76.2826 133.284 76.2284C133.444 76.1742 133.581 76.0929 133.694 75.9845C133.808 75.8761 133.895 75.7433 133.955 75.5862L135.556 75.6919C135.475 76.0767 135.308 76.4127 135.056 76.7C134.807 76.9845 134.484 77.2068 134.089 77.3666C133.696 77.5238 133.242 77.6024 132.727 77.6024ZM136.723 77.4805V71.2366H138.402V72.326H138.467C138.581 71.9385 138.772 71.6458 139.04 71.448C139.308 71.2474 139.617 71.1472 139.967 71.1472C140.054 71.1472 140.147 71.1526 140.247 71.1634C140.348 71.1743 140.436 71.1892 140.512 71.2081V72.7447C140.43 72.7203 140.318 72.6986 140.174 72.6797C140.031 72.6607 139.899 72.6512 139.78 72.6512C139.525 72.6512 139.297 72.7068 139.097 72.8179C138.899 72.9263 138.742 73.0781 138.625 73.2732C138.512 73.4683 138.455 73.6932 138.455 73.948V77.4805H136.723ZM146.869 79.952C146.308 79.952 145.827 79.8748 145.426 79.7203C145.028 79.5685 144.711 79.3612 144.475 79.0983C144.239 78.8355 144.086 78.5401 144.016 78.2122L145.617 77.9967C145.666 78.1214 145.743 78.2379 145.849 78.3463C145.955 78.4547 146.094 78.5414 146.268 78.6065C146.444 78.6742 146.658 78.7081 146.91 78.7081C147.287 78.7081 147.597 78.616 147.841 78.4317C148.087 78.2501 148.211 77.9452 148.211 77.5171V76.3748H148.138C148.062 76.5482 147.948 76.7122 147.796 76.8667C147.644 77.0211 147.449 77.1471 147.211 77.2447C146.972 77.3423 146.688 77.391 146.357 77.391C145.888 77.391 145.461 77.2826 145.077 77.0658C144.694 76.8463 144.39 76.5116 144.162 76.0618C143.937 75.6092 143.825 75.0374 143.825 74.3463C143.825 73.639 143.94 73.0482 144.17 72.574C144.4 72.0997 144.707 71.7447 145.089 71.509C145.474 71.2732 145.895 71.1553 146.353 71.1553C146.703 71.1553 146.995 71.2149 147.231 71.3342C147.467 71.4507 147.656 71.597 147.8 71.7732C147.946 71.9466 148.059 72.1174 148.138 72.2854H148.203V71.2366H149.922V77.5414C149.922 78.0726 149.792 78.517 149.532 78.8748C149.272 79.2325 148.911 79.5008 148.451 79.6796C147.993 79.8612 147.465 79.952 146.869 79.952ZM146.906 76.0902C147.185 76.0902 147.421 76.0211 147.613 75.8829C147.808 75.742 147.957 75.5415 148.06 75.2813C148.166 75.0184 148.219 74.7041 148.219 74.3382C148.219 73.9724 148.167 73.6553 148.064 73.387C147.961 73.116 147.812 72.906 147.617 72.7569C147.422 72.6079 147.185 72.5333 146.906 72.5333C146.621 72.5333 146.381 72.6106 146.186 72.765C145.991 72.9168 145.843 73.1282 145.743 73.3992C145.643 73.6702 145.593 73.9832 145.593 74.3382C145.593 74.6986 145.643 75.0103 145.743 75.2732C145.846 75.5333 145.994 75.7352 146.186 75.8789C146.381 76.0198 146.621 76.0902 146.906 76.0902ZM154.121 77.6024C153.49 77.6024 152.944 77.4683 152.483 77.2C152.025 76.929 151.671 76.5523 151.422 76.0699C151.173 75.5848 151.048 75.0225 151.048 74.3829C151.048 73.7379 151.173 73.1743 151.422 72.6919C151.671 72.2068 152.025 71.8301 152.483 71.5618C152.944 71.2908 153.49 71.1553 154.121 71.1553C154.753 71.1553 155.297 71.2908 155.755 71.5618C156.216 71.8301 156.571 72.2068 156.82 72.6919C157.07 73.1743 157.194 73.7379 157.194 74.3829C157.194 75.0225 157.07 75.5848 156.82 76.0699C156.571 76.5523 156.216 76.929 155.755 77.2C155.297 77.4683 154.753 77.6024 154.121 77.6024ZM154.129 76.261C154.417 76.261 154.656 76.1797 154.849 76.0171C155.041 75.8518 155.186 75.6268 155.284 75.3423C155.384 75.0577 155.434 74.7339 155.434 74.3707C155.434 74.0076 155.384 73.6837 155.284 73.3992C155.186 73.1146 155.041 72.8897 154.849 72.7244C154.656 72.5591 154.417 72.4764 154.129 72.4764C153.839 72.4764 153.595 72.5591 153.398 72.7244C153.203 72.8897 153.055 73.1146 152.955 73.3992C152.857 73.6837 152.808 74.0076 152.808 74.3707C152.808 74.7339 152.857 75.0577 152.955 75.3423C153.055 75.6268 153.203 75.8518 153.398 76.0171C153.595 76.1797 153.839 76.261 154.129 76.261ZM161.142 77.6024C160.51 77.6024 159.964 77.4683 159.503 77.2C159.045 76.929 158.692 76.5523 158.442 76.0699C158.193 75.5848 158.068 75.0225 158.068 74.3829C158.068 73.7379 158.193 73.1743 158.442 72.6919C158.692 72.2068 159.045 71.8301 159.503 71.5618C159.964 71.2908 160.51 71.1553 161.142 71.1553C161.773 71.1553 162.318 71.2908 162.776 71.5618C163.236 71.8301 163.591 72.2068 163.841 72.6919C164.09 73.1743 164.215 73.7379 164.215 74.3829C164.215 75.0225 164.09 75.5848 163.841 76.0699C163.591 76.5523 163.236 76.929 162.776 77.2C162.318 77.4683 161.773 77.6024 161.142 77.6024ZM161.15 76.261C161.437 76.261 161.677 76.1797 161.869 76.0171C162.062 75.8518 162.207 75.6268 162.304 75.3423C162.404 75.0577 162.455 74.7339 162.455 74.3707C162.455 74.0076 162.404 73.6837 162.304 73.3992C162.207 73.1146 162.062 72.8897 161.869 72.7244C161.677 72.5591 161.437 72.4764 161.15 72.4764C160.86 72.4764 160.616 72.5591 160.418 72.7244C160.223 72.8897 160.075 73.1146 159.975 73.3992C159.877 73.6837 159.829 74.0076 159.829 74.3707C159.829 74.7339 159.877 75.0577 159.975 75.3423C160.075 75.6268 160.223 75.8518 160.418 76.0171C160.616 76.1797 160.86 76.261 161.15 76.261ZM167.641 77.5821C167.167 77.5821 166.738 77.4601 166.353 77.2162C165.971 76.9696 165.667 76.6078 165.442 76.1309C165.22 75.6512 165.109 75.0631 165.109 74.3667C165.109 73.6512 165.224 73.0564 165.455 72.5821C165.685 72.1052 165.991 71.7488 166.373 71.513C166.758 71.2745 167.179 71.1553 167.637 71.1553C167.987 71.1553 168.278 71.2149 168.511 71.3342C168.747 71.4507 168.937 71.597 169.081 71.7732C169.227 71.9466 169.338 72.1174 169.414 72.2854H169.467V69.1553H171.194V77.4805H169.487V76.4805H169.414C169.333 76.6539 169.217 76.826 169.068 76.9967C168.922 77.1648 168.731 77.3043 168.495 77.4154C168.262 77.5265 167.978 77.5821 167.641 77.5821ZM168.19 76.2041C168.469 76.2041 168.705 76.1282 168.898 75.9764C169.093 75.8219 169.242 75.6065 169.345 75.3301C169.45 75.0537 169.503 74.7298 169.503 74.3585C169.503 73.9873 169.452 73.6648 169.349 73.3911C169.246 73.1173 169.097 72.906 168.902 72.7569C168.707 72.6079 168.469 72.5333 168.19 72.5333C167.906 72.5333 167.666 72.6106 167.471 72.765C167.276 72.9195 167.128 73.1336 167.028 73.4073C166.927 73.681 166.877 73.9981 166.877 74.3585C166.877 74.7217 166.927 75.0428 167.028 75.3219C167.131 75.5984 167.278 75.8152 167.471 75.9723C167.666 76.1268 167.906 76.2041 168.19 76.2041ZM177.813 73.0171L176.228 73.1146C176.201 72.9791 176.142 72.8572 176.053 72.7488C175.964 72.6377 175.846 72.5496 175.699 72.4846C175.556 72.4168 175.384 72.3829 175.183 72.3829C174.915 72.3829 174.689 72.4398 174.504 72.5537C174.32 72.6648 174.228 72.8138 174.228 73.0008C174.228 73.1499 174.287 73.2759 174.407 73.3789C174.526 73.4818 174.731 73.5645 175.021 73.6268L176.151 73.8545C176.758 73.9791 177.21 74.1797 177.508 74.4561C177.806 74.7325 177.955 75.0957 177.955 75.5455C177.955 75.9547 177.835 76.3138 177.594 76.6227C177.355 76.9317 177.027 77.1729 176.61 77.3463C176.195 77.5171 175.717 77.6024 175.175 77.6024C174.348 77.6024 173.69 77.4303 173.199 77.0862C172.712 76.7393 172.426 76.2677 172.342 75.6715L174.045 75.5821C174.096 75.8341 174.221 76.0265 174.419 76.1593C174.617 76.2894 174.87 76.3545 175.179 76.3545C175.483 76.3545 175.726 76.2962 175.911 76.1797C176.098 76.0604 176.193 75.9073 176.195 75.7203C176.193 75.5631 176.126 75.4344 175.996 75.3341C175.866 75.2312 175.665 75.1526 175.394 75.0984L174.313 74.8829C173.703 74.761 173.25 74.5496 172.951 74.2488C172.656 73.948 172.508 73.5645 172.508 73.0984C172.508 72.6973 172.617 72.3518 172.834 72.0618C173.053 71.7718 173.361 71.5482 173.756 71.3911C174.155 71.2339 174.621 71.1553 175.155 71.1553C175.943 71.1553 176.564 71.322 177.016 71.6553C177.472 71.9886 177.737 72.4426 177.813 73.0171Z" fill="black"/>
<path d="M75.333 77.6024C74.7585 77.6024 74.2625 77.4994 73.8452 77.2935C73.4278 77.0875 73.1067 76.8084 72.8818 76.4561C72.6596 76.1011 72.5484 75.7054 72.5484 75.2691C72.5484 74.9439 72.6135 74.6553 72.7436 74.4032C72.8736 74.1512 73.0552 73.9195 73.2883 73.7081C73.5213 73.494 73.7923 73.2813 74.1013 73.0699L75.7151 72.0089C75.9238 71.8762 76.0769 71.7366 76.1744 71.5903C76.272 71.4412 76.3208 71.28 76.3208 71.1065C76.3208 70.9412 76.2544 70.7881 76.1216 70.6472C75.9888 70.5062 75.8005 70.4371 75.5566 70.4399C75.394 70.4399 75.253 70.4764 75.1338 70.5496C75.0146 70.6201 74.9211 70.7136 74.8533 70.8301C74.7883 70.9439 74.7558 71.0713 74.7558 71.2122C74.7558 71.3856 74.8045 71.5618 74.9021 71.7407C74.9997 71.9195 75.1297 72.1092 75.2923 72.3098C75.4549 72.5076 75.6324 72.7217 75.8249 72.952L79.772 77.4805H77.9671L74.6744 73.8138C74.4576 73.5672 74.2408 73.3098 74.024 73.0415C73.81 72.7705 73.6311 72.4832 73.4875 72.1797C73.3438 71.8734 73.272 71.5415 73.272 71.1837C73.272 70.78 73.3655 70.4168 73.5525 70.0943C73.7422 69.7718 74.0078 69.5171 74.3492 69.3301C74.6907 69.1404 75.0891 69.0455 75.5444 69.0455C75.9888 69.0455 76.3723 69.1363 76.6948 69.3179C77.02 69.4968 77.2693 69.7352 77.4427 70.0333C77.6189 70.3287 77.707 70.6539 77.707 71.009C77.707 71.4019 77.6094 71.7583 77.4143 72.0781C77.2219 72.3951 76.9509 72.6797 76.6013 72.9317L74.9021 74.1553C74.6717 74.3233 74.501 74.4954 74.3899 74.6715C74.2815 74.845 74.2273 75.0116 74.2273 75.1715C74.2273 75.3694 74.2761 75.5469 74.3736 75.7041C74.4712 75.8612 74.6094 75.9859 74.7883 76.078C74.9671 76.1675 75.1772 76.2122 75.4183 76.2122C75.711 76.2122 75.9996 76.1458 76.2842 76.013C76.5715 75.8775 76.8316 75.6864 77.0647 75.4398C77.3005 75.1905 77.4888 74.8951 77.6297 74.5537C77.7706 74.2122 77.8411 73.8341 77.8411 73.4195H79.2761C79.2761 73.929 79.2205 74.3883 79.1094 74.7976C78.9983 75.2041 78.8438 75.5591 78.646 75.8626C78.4481 76.1634 78.2219 76.41 77.9671 76.6024C77.8858 76.6539 77.8072 76.7027 77.7313 76.7488C77.6555 76.7948 77.5769 76.8436 77.4956 76.8951C77.1866 77.1444 76.8411 77.3246 76.459 77.4358C76.0796 77.5469 75.7043 77.6024 75.333 77.6024Z" fill="#F69912"/>
</svg>
