<svg width="30" height="30" viewBox="0 0 30 30" fill="none" xmlns="http://www.w3.org/2000/svg">
<path d="M17.5 15.3125C16.5729 15.3125 15.6666 15.0376 14.8958 14.5225C14.1249 14.0074 13.5241 13.2754 13.1693 12.4188C12.8145 11.5623 12.7217 10.6198 12.9026 9.71052C13.0834 8.80123 13.5299 7.966 14.1854 7.31044C14.841 6.65488 15.6762 6.20844 16.5855 6.02757C17.4948 5.8467 18.4373 5.93953 19.2938 6.29432C20.1504 6.6491 20.8824 7.24991 21.3975 8.02077C21.9126 8.79162 22.1875 9.6979 22.1875 10.625C22.1875 11.8682 21.6936 13.0605 20.8146 13.9396C19.9355 14.8186 18.7432 15.3125 17.5 15.3125ZM17.5 7.8125C16.9437 7.8125 16.4 7.97745 15.9375 8.28649C15.4749 8.59554 15.1145 9.03479 14.9016 9.5487C14.6887 10.0626 14.633 10.6281 14.7415 11.1737C14.8501 11.7193 15.1179 12.2204 15.5113 12.6137C15.9046 13.0071 16.4057 13.2749 16.9513 13.3835C17.4969 13.492 18.0624 13.4363 18.5763 13.2234C19.0902 13.0105 19.5295 12.6501 19.8385 12.1875C20.1476 11.725 20.3125 11.1813 20.3125 10.625C20.3125 9.87908 20.0162 9.16371 19.4887 8.63626C18.9613 8.10882 18.2459 7.8125 17.5 7.8125Z" fill="black"/>
<path d="M26.25 24.0625C26.0024 24.0593 25.7658 23.9595 25.5907 23.7843C25.4155 23.6092 25.3157 23.3726 25.3125 23.125C25.3125 20.6875 23.9875 19.0625 17.5 19.0625C11.0125 19.0625 9.6875 20.6875 9.6875 23.125C9.6875 23.3736 9.58873 23.6121 9.41291 23.7879C9.2371 23.9637 8.99864 24.0625 8.75 24.0625C8.50136 24.0625 8.2629 23.9637 8.08709 23.7879C7.91127 23.6121 7.8125 23.3736 7.8125 23.125C7.8125 17.1875 14.6 17.1875 17.5 17.1875C20.4 17.1875 27.1875 17.1875 27.1875 23.125C27.1843 23.3726 27.0845 23.6092 26.9093 23.7843C26.7342 23.9595 26.4976 24.0593 26.25 24.0625Z" fill="black"/>
<path d="M10.4 16.3241H9.99996C9.0054 16.228 8.08977 15.7407 7.45449 14.9695C6.81921 14.1982 6.51632 13.2062 6.61246 12.2116C6.7086 11.2171 7.19589 10.3014 7.96714 9.66616C8.73838 9.03088 9.7304 8.72799 10.725 8.82413C10.8525 8.82961 10.9775 8.86108 11.0925 8.9166C11.2074 8.97212 11.3098 9.05052 11.3934 9.14701C11.4769 9.24349 11.5399 9.35603 11.5785 9.47771C11.617 9.5994 11.6303 9.72767 11.6175 9.85467C11.6047 9.98167 11.5661 10.1047 11.5041 10.2163C11.4421 10.3278 11.3579 10.4256 11.2568 10.5035C11.1557 10.5814 11.0397 10.6378 10.916 10.6693C10.7923 10.7008 10.6635 10.7067 10.5375 10.6866C10.2935 10.6623 10.047 10.6874 9.81294 10.7604C9.57885 10.8334 9.36187 10.9529 9.17496 11.1116C8.98512 11.2648 8.82767 11.4542 8.71178 11.6688C8.59589 11.8834 8.52388 12.1189 8.49996 12.3616C8.47411 12.6074 8.49744 12.8559 8.56857 13.0925C8.6397 13.3292 8.75722 13.5493 8.91427 13.7401C9.07133 13.9309 9.26479 14.0886 9.48338 14.2039C9.70196 14.3191 9.94131 14.3898 10.1875 14.4116C10.5944 14.4464 11.0018 14.3501 11.35 14.1366C11.5621 14.0057 11.8176 13.9644 12.0603 14.0218C12.3029 14.0792 12.5128 14.2307 12.6437 14.4429C12.7747 14.6551 12.816 14.9106 12.7585 15.1532C12.7011 15.3958 12.5496 15.6057 12.3375 15.7366C11.7577 16.1064 11.0874 16.3096 10.4 16.3241Z" fill="black"/>
<path d="M3.75 23.125C3.50237 23.1218 3.26579 23.022 3.09067 22.8468C2.91555 22.6717 2.81574 22.4351 2.8125 22.1875C2.8125 18.8125 3.7125 16.5625 8.125 16.5625C8.37364 16.5625 8.6121 16.6613 8.78791 16.8371C8.96373 17.0129 9.0625 17.2514 9.0625 17.5C9.0625 17.7486 8.96373 17.9871 8.78791 18.1629C8.6121 18.3387 8.37364 18.4375 8.125 18.4375C5.1875 18.4375 4.6875 19.375 4.6875 22.1875C4.68426 22.4351 4.58445 22.6717 4.40933 22.8468C4.23421 23.022 3.99763 23.1218 3.75 23.125Z" fill="black"/>
</svg>
