<svg width="24" height="24" viewBox="0 0 24 24" fill="none" xmlns="http://www.w3.org/2000/svg">
<path d="M13.23 18.3002C14.7193 18.3002 16.1751 17.8586 17.4135 17.0312C18.6518 16.2038 19.6169 15.0278 20.1868 13.6518C20.7567 12.2759 20.9059 10.7619 20.6153 9.30121C20.3248 7.84053 19.6076 6.49881 18.5545 5.44572C17.5014 4.39263 16.1597 3.67547 14.699 3.38492C13.2384 3.09438 11.7243 3.2435 10.3484 3.81342C8.97247 4.38335 7.79645 5.34849 6.96904 6.58679C6.14163 7.8251 5.70001 9.28094 5.70001 10.7702C5.70001 11.7591 5.89478 12.7383 6.27319 13.6518C6.65161 14.5654 7.20627 15.3955 7.90549 16.0948C8.60472 16.794 9.43482 17.3486 10.3484 17.727C11.262 18.1055 12.2412 18.3002 13.23 18.3002ZM13.23 4.75024C14.4167 4.75024 15.5767 5.10213 16.5634 5.76142C17.5501 6.42071 18.3192 7.35778 18.7733 8.45414C19.2274 9.55049 19.3462 10.7569 19.1147 11.9208C18.8832 13.0847 18.3118 14.1538 17.4726 14.9929C16.6335 15.832 15.5644 16.4034 14.4005 16.6349C13.2367 16.8665 12.0303 16.7476 10.9339 16.2935C9.83755 15.8394 8.90048 15.0704 8.24119 14.0837C7.5819 13.097 7.23001 11.9369 7.23001 10.7502C7.23001 9.15894 7.86215 7.63282 8.98737 6.5076C10.1126 5.38238 11.6387 4.75024 13.23 4.75024Z" fill="#999999"/>
<path d="M4.00004 20.75C4.09858 20.7504 4.19622 20.7312 4.28723 20.6934C4.37824 20.6557 4.46079 20.6001 4.53004 20.53L8.66004 16.4C8.79252 16.2578 8.86464 16.0697 8.86121 15.8754C8.85778 15.6811 8.77907 15.4958 8.64166 15.3583C8.50425 15.2209 8.31886 15.1422 8.12456 15.1388C7.93026 15.1354 7.74221 15.2075 7.60004 15.34L3.47004 19.47C3.32959 19.6106 3.2507 19.8012 3.2507 20C3.2507 20.1987 3.32959 20.3893 3.47004 20.53C3.53928 20.6001 3.62183 20.6557 3.71284 20.6934C3.80386 20.7312 3.9015 20.7504 4.00004 20.75Z" fill="#999999"/>
</svg>
