<svg width="179" height="40" viewBox="0 0 179 40" fill="none" xmlns="http://www.w3.org/2000/svg">
<path d="M21.8305 13.0835C21.7342 11.879 21.2825 10.9396 20.4755 10.2651C19.6806 9.59057 18.4701 9.25333 16.8441 9.25333C15.8083 9.25333 14.9591 9.37979 14.2967 9.63273C13.6463 9.87362 13.1645 10.2048 12.8513 10.6264C12.5382 11.048 12.3756 11.5297 12.3635 12.0717C12.3394 12.5174 12.4177 12.9209 12.5984 13.2822C12.7911 13.6315 13.0922 13.9507 13.5017 14.2398C13.9113 14.5168 14.4352 14.7697 15.0735 14.9986C15.7119 15.2274 16.4707 15.4322 17.35 15.6128L20.3852 16.2632C22.4327 16.6968 24.1852 17.2689 25.6426 17.9796C27.1 18.6902 28.2924 19.5273 29.2198 20.4909C30.1473 21.4424 30.8278 22.5143 31.2614 23.7067C31.707 24.8991 31.9359 26.2 31.9479 27.6092C31.9359 30.0422 31.3276 32.1018 30.1232 33.788C28.9187 35.4742 27.1963 36.757 24.9561 37.6362C22.7278 38.5155 20.0479 38.9551 16.9164 38.9551C13.7005 38.9551 10.8941 38.4793 8.49725 37.5278C6.11244 36.5763 4.25758 35.1129 2.93269 33.1376C1.61983 31.1502 0.957386 28.6089 0.945341 25.5134H10.4846C10.5448 26.6456 10.8279 27.5971 11.3337 28.368C11.8396 29.1388 12.5502 29.723 13.4656 30.1204C14.393 30.5179 15.4951 30.7166 16.7718 30.7166C17.8438 30.7166 18.7411 30.5842 19.4638 30.3192C20.1864 30.0542 20.7345 29.6868 21.1078 29.2171C21.4812 28.7474 21.6739 28.2114 21.686 27.6092C21.6739 27.0431 21.4873 26.5492 21.1259 26.1277C20.7766 25.6941 20.1985 25.3087 19.3915 24.9714C18.5845 24.6221 17.4945 24.2969 16.1214 23.9958L12.4358 23.2009C9.1597 22.4902 6.57615 21.3039 4.68516 19.6417C2.80622 17.9675 1.87277 15.6851 1.88481 12.7944C1.87277 10.4457 2.49908 8.39215 3.76376 6.63365C5.04047 4.8631 6.80499 3.48401 9.05732 2.49636C11.3217 1.50871 13.9173 1.01488 16.8441 1.01488C19.8311 1.01488 22.4147 1.51473 24.5947 2.51443C26.7748 3.51412 28.455 4.92333 29.6354 6.74205C30.8278 8.54872 31.43 10.6625 31.442 13.0835H21.8305ZM34.7573 9.61466V1.52075H66.9161V9.61466H55.787V38.5215H45.8864V9.61466H34.7573ZM138.975 15.396H128.786C128.713 14.5529 128.521 13.7881 128.208 13.1015C127.907 12.415 127.485 11.8248 126.943 11.331C126.413 10.8251 125.769 10.4397 125.01 10.1747C124.251 9.89771 123.39 9.7592 122.426 9.7592C120.74 9.7592 119.313 10.1687 118.144 10.9877C116.988 11.8068 116.109 12.9811 115.507 14.5108C114.917 16.0404 114.621 17.8772 114.621 20.0211C114.621 22.2855 114.923 24.1825 115.525 25.7122C116.139 27.2298 117.024 28.374 118.181 29.1448C119.337 29.9036 120.728 30.283 122.354 30.283C123.281 30.283 124.112 30.1686 124.847 29.9398C125.582 29.6989 126.22 29.3556 126.762 28.91C127.304 28.4643 127.744 27.9283 128.081 27.302C128.43 26.6637 128.665 25.947 128.786 25.1521L138.975 25.2243C138.855 26.7901 138.415 28.386 137.657 30.012C136.898 31.626 135.82 33.1195 134.423 34.4926C133.037 35.8536 131.321 36.9497 129.274 37.7807C127.226 38.6118 124.847 39.0274 122.137 39.0274C118.741 39.0274 115.693 38.2987 112.995 36.8413C110.309 35.3839 108.184 33.24 106.618 30.4095C105.064 27.579 104.287 24.1163 104.287 20.0211C104.287 15.9019 105.082 12.4331 106.672 9.61466C108.262 6.7842 110.406 4.6463 113.104 3.20096C115.802 1.74358 118.813 1.01488 122.137 1.01488C124.474 1.01488 126.624 1.33406 128.587 1.97242C130.55 2.61078 132.273 3.54423 133.754 4.77277C135.236 5.98927 136.428 7.48881 137.331 9.27139C138.235 11.054 138.783 13.0955 138.975 15.396ZM167.562 13.7339C167.405 13.0955 167.158 12.5355 166.821 12.0537C166.484 11.5599 166.062 11.1443 165.556 10.8071C165.062 10.4578 164.484 10.1988 163.822 10.0302C163.171 9.84953 162.455 9.7592 161.672 9.7592C159.986 9.7592 158.546 10.1627 157.354 10.9697C156.173 11.7767 155.27 12.9389 154.644 14.4566C154.03 15.9742 153.722 17.8049 153.722 19.9489C153.722 22.1169 154.017 23.9717 154.608 25.5134C155.198 27.0551 156.077 28.2355 157.245 29.0545C158.414 29.8735 159.865 30.283 161.6 30.283C163.129 30.283 164.4 30.0602 165.412 29.6146C166.435 29.1689 167.2 28.5366 167.706 27.7176C168.212 26.8985 168.465 25.935 168.465 24.8269L170.199 25.0075H161.744V17.8531H178.149V22.9841C178.149 26.3565 177.432 29.2412 175.999 31.638C174.577 34.0229 172.614 35.8536 170.109 37.1303C167.616 38.395 164.755 39.0274 161.527 39.0274C157.926 39.0274 154.764 38.2625 152.042 36.7329C149.32 35.2032 147.194 33.0232 145.665 30.1927C144.147 27.3622 143.388 23.9958 143.388 20.0934C143.388 17.0341 143.852 14.3241 144.779 11.9633C145.719 9.60262 147.02 7.60925 148.682 5.98324C150.344 4.34519 152.265 3.11063 154.445 2.27956C156.625 1.43644 158.962 1.01488 161.455 1.01488C163.647 1.01488 165.683 1.32804 167.562 1.95436C169.453 2.56863 171.121 3.44787 172.566 4.5921C174.023 5.72429 175.198 7.06725 176.089 8.62099C176.98 10.1747 177.522 11.879 177.715 13.7339H167.562Z" fill="#999999"/>
<path d="M81.0263 39.0996C78.3765 39.0996 76.094 38.6299 74.179 37.6904C72.2639 36.7509 70.7945 35.4923 69.7707 33.9145C68.7469 32.3366 68.235 30.5962 68.235 28.6932C68.235 27.308 68.5 26.0855 69.0299 25.0256C69.5599 23.9537 70.3006 22.972 71.2522 22.0807C72.2037 21.1894 73.3178 20.3102 74.5945 19.443L82.9775 14.2398C83.8206 13.7098 84.3927 13.1618 84.6938 12.5957C84.9949 12.0175 85.1455 11.5057 85.1455 11.06C85.1455 10.4698 84.9287 9.94589 84.4951 9.4882C84.0615 9.03051 83.387 8.80768 82.4716 8.81973C81.9055 8.81973 81.4177 8.92813 81.0082 9.14493C80.5987 9.34968 80.2795 9.63875 80.0507 10.0121C79.8339 10.3855 79.7255 10.8312 79.7255 11.3491C79.7255 12.0597 79.9302 12.7884 80.3397 13.5352C80.7492 14.2699 81.3093 15.0648 82.0199 15.92C82.7306 16.7751 83.5315 17.7327 84.4228 18.7926L102.345 38.5215H92.3722L77.3407 22.6227C76.6059 21.8398 75.7929 20.8823 74.9016 19.7501C74.0103 18.6059 73.2395 17.3171 72.5891 15.8838C71.9507 14.4505 71.6316 12.8908 71.6316 11.2045C71.6316 9.3256 72.0832 7.60925 72.9866 6.05551C73.8899 4.50177 75.1546 3.26119 76.7806 2.33376C78.4066 1.40633 80.3036 0.942618 82.4716 0.942618C84.5433 0.942618 86.3259 1.3702 87.8194 2.22536C89.3249 3.08052 90.4812 4.21872 91.2882 5.63998C92.1072 7.06123 92.5167 8.62701 92.5167 10.3373C92.5167 12.0597 92.0892 13.6676 91.234 15.1612C90.3909 16.6547 89.1804 17.9615 87.6026 19.0816L79.9423 24.5017C79.3521 24.9112 78.8402 25.3809 78.4066 25.9109C77.985 26.4408 77.7743 27.1274 77.7743 27.9705C77.7743 28.6691 77.9369 29.2653 78.2621 29.7591C78.5873 30.2529 79.0449 30.6323 79.6351 30.8973C80.2374 31.1623 80.942 31.2948 81.7489 31.2948C82.9775 31.2948 84.206 30.9997 85.4346 30.4095C86.6751 29.8073 87.8073 28.9702 88.8311 27.8982C89.8549 26.8142 90.6739 25.5375 91.2882 24.0681C91.9145 22.5866 92.2277 20.9726 92.2277 19.2262H100.105C100.105 21.3701 99.882 23.4357 99.4363 25.4231C98.9907 27.4104 98.274 29.2291 97.2864 30.8792C96.2987 32.5293 94.9979 33.9205 93.3839 35.0527C92.8781 35.3056 92.3842 35.5465 91.9025 35.7753C91.4207 36.0042 90.9269 36.2451 90.421 36.498C88.9395 37.4495 87.3918 38.124 85.7778 38.5215C84.1639 38.9069 82.58 39.0996 81.0263 39.0996Z" fill="#F69912"/>
</svg>
