<svg width="20" height="20" viewBox="0 0 20 20" fill="none" xmlns="http://www.w3.org/2000/svg">
<path d="M14.3334 17.2908C14.2314 17.2906 14.1311 17.2648 14.0417 17.2158L10 15.0908L5.95836 17.2158C5.85566 17.2709 5.73959 17.2962 5.62325 17.2888C5.50692 17.2815 5.39496 17.2417 5.30003 17.1741C5.20525 17.1046 5.13167 17.0101 5.08752 16.9012C5.04337 16.7923 5.03039 16.6733 5.05003 16.5574L5.83336 12.0574L2.55003 8.87409C2.46774 8.79172 2.4101 8.688 2.3836 8.57463C2.35709 8.46126 2.36278 8.34273 2.40003 8.23242C2.43492 8.1217 2.50035 8.02308 2.58881 7.94789C2.67726 7.87271 2.78514 7.82402 2.90003 7.80742L7.4167 7.14909L9.4417 3.05742C9.49933 2.96073 9.58109 2.88067 9.67896 2.82507C9.77683 2.76947 9.88747 2.74023 10 2.74023C10.1126 2.74023 10.2232 2.76947 10.3211 2.82507C10.419 2.88067 10.5007 2.96073 10.5584 3.05742L12.5834 7.14909L17.1 7.80742C17.2149 7.82402 17.3228 7.87271 17.4113 7.94789C17.4997 8.02308 17.5651 8.1217 17.6 8.23242C17.6373 8.34273 17.643 8.46126 17.6165 8.57463C17.59 8.688 17.5323 8.79172 17.45 8.87409L14.1667 12.0574L14.9417 16.5574C14.9613 16.6733 14.9484 16.7923 14.9042 16.9012C14.8601 17.0101 14.7865 17.1046 14.6917 17.1741C14.5862 17.2471 14.4616 17.2876 14.3334 17.2908ZM10 13.7658C10.1009 13.767 10.2003 13.7897 10.2917 13.8324L13.5 15.4991L12.8917 11.9241C12.8752 11.8238 12.8824 11.7211 12.9128 11.6241C12.9432 11.5272 12.9959 11.4387 13.0667 11.3658L15.6667 8.86576L12.075 8.33242C11.9757 8.31662 11.8816 8.27738 11.8004 8.21797C11.7193 8.15856 11.6534 8.08067 11.6084 7.99076L10 4.74076L8.3917 7.99909C8.34663 8.089 8.28079 8.16689 8.19964 8.2263C8.11849 8.28572 8.02436 8.32495 7.92503 8.34076L4.33336 8.86576L6.93336 11.3658C7.00415 11.4387 7.05685 11.5272 7.08724 11.6241C7.11763 11.7211 7.12487 11.8238 7.10836 11.9241L6.50003 15.5241L9.70836 13.8574C9.79775 13.806 9.89729 13.7747 10 13.7658Z" fill="#999999"/>
</svg>
