<svg width="20" height="20" viewBox="0 0 20 20" fill="none" xmlns="http://www.w3.org/2000/svg">
<path d="M16.25 6.87565H13.75V6.45898C13.75 5.46442 13.355 4.5106 12.6517 3.80733C11.9484 3.10407 10.9946 2.70898 10 2.70898C9.00548 2.70898 8.05165 3.10407 7.34839 3.80733C6.64513 4.5106 6.25004 5.46442 6.25004 6.45898V6.87565H3.75004C3.47377 6.87565 3.20882 6.9854 3.01347 7.18075C2.81812 7.3761 2.70837 7.64105 2.70837 7.91732V15.0007C2.70837 15.6084 2.94982 16.1913 3.37959 16.6211C3.80936 17.0509 4.39225 17.2923 5.00004 17.2923H15C15.6078 17.2923 16.1907 17.0509 16.6205 16.6211C17.0503 16.1913 17.2917 15.6084 17.2917 15.0007V7.91732C17.2917 7.64105 17.182 7.3761 16.9866 7.18075C16.7913 6.9854 16.5263 6.87565 16.25 6.87565ZM7.50004 6.45898C7.50004 5.79594 7.76343 5.16006 8.23227 4.69122C8.70111 4.22238 9.337 3.95898 10 3.95898C10.6631 3.95898 11.299 4.22238 11.7678 4.69122C12.2366 5.16006 12.5 5.79594 12.5 6.45898V6.87565H7.50004V6.45898ZM16.0417 15.0007C16.0417 15.2769 15.932 15.5419 15.7366 15.7372C15.5413 15.9326 15.2763 16.0423 15 16.0423H5.00004C4.72377 16.0423 4.45882 15.9326 4.26347 15.7372C4.06812 15.5419 3.95837 15.2769 3.95837 15.0007V8.12565H6.25004V10.0007C6.25004 10.1664 6.31589 10.3254 6.4331 10.4426C6.55031 10.5598 6.70928 10.6257 6.87504 10.6257C7.0408 10.6257 7.19977 10.5598 7.31698 10.4426C7.43419 10.3254 7.50004 10.1664 7.50004 10.0007V8.12565H12.5V10.0007C12.5 10.1664 12.5659 10.3254 12.6831 10.4426C12.8003 10.5598 12.9593 10.6257 13.125 10.6257C13.2908 10.6257 13.4498 10.5598 13.567 10.4426C13.6842 10.3254 13.75 10.1664 13.75 10.0007V8.12565H16.0417V15.0007Z" fill="#999999"/>
</svg>
